<?xml version="1.0" standalone="no"?>
<!DOCTYPE svg PUBLIC "-//W3C//DTD SVG 20010904//EN"
 "http://www.w3.org/TR/2001/REC-SVG-20010904/DTD/svg10.dtd">
<svg version="1.0" xmlns="http://www.w3.org/2000/svg"
 width="690.000000pt" height="690.000000pt" viewBox="0 0 690.000000 690.000000"
 preserveAspectRatio="xMidYMid meet">
<metadata>
Created by potrace 1.14, written by Peter Selinger 2001-2017
</metadata>
<g transform="translate(0.000000,690.000000) scale(0.100000,-0.100000)"
fill="#000000" stroke="none">
<path d="M2605 5960 c-3 -5 -21 -10 -38 -10 l-32 -1 23 -19 c13 -11 46 -23 74
-26 42 -6 53 -12 71 -40 21 -32 45 -50 54 -40 6 6 -42 96 -66 124 -20 23 -74
31 -86 12z"/>
<path d="M2330 5928 c-19 -5 -46 -17 -60 -28 l-24 -18 19 -41 c15 -30 26 -41
43 -41 39 0 62 -18 62 -50 0 -32 16 -42 42 -26 12 7 24 6 41 -3 14 -7 34 -10
45 -7 13 5 36 -3 68 -24 53 -33 69 -32 36 3 -27 29 -28 47 -3 47 31 0 152 -66
211 -115 65 -54 81 -59 142 -46 48 11 102 1 123 -23 6 -6 21 -17 33 -24 22
-12 23 -12 12 8 -6 12 -21 25 -34 29 -12 5 -28 16 -35 24 -7 9 -41 25 -76 37
-85 28 -165 82 -250 169 -69 71 -69 71 -125 71 -52 0 -56 2 -78 35 -22 34 -23
35 -90 34 -37 -1 -83 -5 -102 -11z"/>
<path d="M2183 5845 c-3 -9 -3 -18 0 -21 9 -9 27 6 27 22 0 19 -19 18 -27 -1z"/>
<path d="M2176 5772 c-3 -5 10 -26 29 -46 28 -31 38 -36 62 -30 38 9 39 11 17
35 -34 38 -95 61 -108 41z"/>
<path d="M2860 5720 c0 -5 7 -10 15 -10 8 0 15 5 15 10 0 6 -7 10 -15 10 -8 0
-15 -4 -15 -10z"/>
<path d="M2130 5645 c0 -30 11 -32 33 -7 23 25 21 32 -8 32 -20 0 -25 -5 -25
-25z"/>
<path d="M2580 5584 c0 -4 9 -17 19 -28 19 -21 20 -22 2 -62 -13 -29 -32 -49
-67 -69 -47 -27 -84 -60 -84 -75 0 -4 18 -23 39 -42 32 -28 41 -45 46 -83 7
-40 3 -58 -23 -119 -18 -39 -34 -91 -37 -116 -11 -81 -14 -87 -50 -105 -20 -9
-48 -29 -61 -45 -14 -16 -39 -34 -56 -41 -29 -12 -29 -14 -25 -63 3 -28 11
-89 18 -136 18 -124 17 -198 -5 -250 -28 -70 -31 -74 -55 -85 -12 -6 -26 -25
-31 -45 -20 -75 -40 -183 -40 -217 0 -19 -12 -62 -27 -95 -21 -47 -24 -63 -15
-81 34 -69 36 -93 14 -136 -27 -52 -28 -77 -2 -91 25 -13 27 -71 3 -95 -19
-19 -78 -15 -99 7 -7 8 -13 48 -15 98 -4 152 0 207 17 224 12 13 13 24 6 58
-7 35 -11 39 -16 23 -12 -32 -35 -78 -48 -97 -10 -14 -10 -22 0 -38 9 -16 10
-30 2 -59 -11 -41 9 -143 65 -326 44 -145 57 -218 66 -370 11 -186 18 -247 30
-259 5 -6 9 -26 9 -46 0 -54 37 -219 62 -273 l22 -48 -26 -24 -26 -24 19 -51
c22 -58 23 -89 7 -159 -10 -45 -9 -57 15 -128 35 -105 82 -234 106 -285 42
-94 51 -123 57 -177 3 -31 21 -103 39 -161 18 -58 42 -137 54 -175 18 -64 115
-235 133 -235 3 0 44 -23 90 -52 101 -62 171 -88 240 -88 39 0 57 -5 75 -22
20 -18 28 -20 61 -12 22 5 59 5 93 0 49 -8 62 -7 98 12 23 12 51 22 62 22 11
0 39 15 62 34 54 43 146 90 223 111 32 9 74 26 92 36 19 11 63 23 98 28 35 5
93 23 128 40 34 17 70 31 80 31 9 0 27 6 39 14 12 8 38 17 57 21 38 8 65 25
149 93 30 23 69 49 87 57 18 7 40 25 50 40 10 15 41 40 71 57 130 73 273 256
297 377 3 18 20 61 36 95 16 33 33 84 36 111 4 28 15 82 26 120 43 152 46 185
18 185 -29 0 -42 39 -24 67 16 25 19 67 5 59 -13 -9 -41 4 -41 18 0 7 11 23
25 36 24 22 25 29 25 129 -1 79 -6 119 -20 156 -10 28 -31 89 -47 138 -21 66
-32 87 -45 87 -22 0 -23 9 -3 24 13 10 13 15 -5 46 -11 19 -26 46 -32 60 -7
14 -18 30 -24 35 -6 6 -15 23 -18 38 -4 18 -19 35 -39 45 -17 9 -62 46 -99 81
-64 60 -68 67 -68 108 0 30 -6 49 -20 63 -11 11 -20 29 -20 40 0 11 -4 20 -10
20 -5 0 -25 14 -44 31 -31 26 -41 50 -86 191 -29 89 -63 211 -77 272 -20 90
-54 194 -69 215 -7 8 -53 -30 -59 -49 -5 -16 -15 -20 -55 -20 -40 0 -52 4 -68
25 -18 22 -24 24 -48 15 -34 -13 -49 -1 -40 35 7 28 12 29 75 9 22 -6 23 -5
16 25 -7 35 -7 35 29 21 29 -10 35 0 11 20 -9 8 -15 30 -15 57 0 24 -7 58 -16
76 -22 42 -147 198 -216 267 -30 30 -64 69 -76 85 l-22 30 -17 -22 c-10 -12
-29 -24 -43 -25 -26 -3 -28 4 -15 53 5 21 3 27 -14 32 -25 6 -38 34 -23 49 7
7 16 6 30 -1 32 -17 35 3 7 43 -36 54 -59 102 -84 178 -22 65 -24 68 -64 78
-56 14 -70 22 -84 51 -11 20 -10 26 3 35 13 10 10 15 -21 34 -19 12 -47 38
-62 57 -15 19 -45 48 -69 64 -34 23 -43 26 -48 14 -8 -23 -63 -18 -99 9 -18
12 -60 30 -95 38 -59 14 -63 14 -80 -5 -30 -34 -90 -58 -135 -55 -41 3 -42 4
-40 38 1 31 -2 37 -36 52 -45 21 -101 34 -101 22z"/>
<path d="M1911 5555 c5 -24 71 -60 94 -51 18 6 17 8 -6 31 -13 14 -39 28 -58
31 -28 6 -33 4 -30 -11z"/>
<path d="M1995 4989 c-8 -13 -13 -10 65 -42 71 -30 115 -63 155 -116 25 -34
25 -35 25 -9 0 14 -7 31 -15 38 -8 7 -15 24 -15 39 0 21 -9 31 -42 48 -88 46
-160 64 -173 42z"/>
</g>
</svg>
